<?xml version="1.0" encoding="UTF-8" standalone="no"?>
<!-- Created with Inkscape (http://www.inkscape.org/) -->

<svg
   version="1.1"
   id="svg409"
   width="682.66669"
   height="682.66669"
   viewBox="0 0 682.66669 682.66669"
   xmlns="http://www.w3.org/2000/svg"
   xmlns:svg="http://www.w3.org/2000/svg">
  <defs
     id="defs413" />
  <g
     id="g415">
    <g
       id="g435"
       transform="matrix(1.0466344,0,0,1.1050603,-11.301498,-17.94799)">
      <path
         style="fill:#cff0f6;stroke-width:1.33333"
         d="m 275.66668,583.01282 c 4.58333,-0.26036 12.08333,-0.26036 16.66666,0 4.58334,0.26036 0.83334,0.47339 -8.33333,0.47339 -9.16667,0 -12.91667,-0.21303 -8.33333,-0.47339 z m 81.20408,-0.0133 c -0.34099,-0.55 2.4736,-0.82675 6.25464,-0.61499 11.36537,0.63652 12.75087,1.24079 3.28664,1.43341 -4.90672,0.0999 -9.20031,-0.26842 -9.54128,-0.81842 z m -93.12075,-1.24415 c 0.96249,-0.38516 2.11249,-0.3378 2.55556,0.1052 0.44305,0.44305 -0.34445,0.75819 -1.75,0.70029 -1.55327,-0.064 -1.8692,-0.37992 -0.80556,-0.80554 z m 56.73697,-11.75532 c 0.004,-7.33333 0.22738,-10.16323 0.49756,-6.28864 0.2702,3.87459 0.26736,9.87459 -0.007,13.33333 -0.27367,3.45875 -0.49472,0.28864 -0.49126,-7.04469 z m -64.65705,7.66667 c -1.65849,-2.11475 -1.61133,-2.16191 0.50341,-0.50342 1.28334,1.00647 2.33334,2.05647 2.33334,2.33334 0,1.09738 -1.09492,0.39108 -2.83675,-1.82992 z m -2.89425,-4 c -0.30527,-0.55 -2.23943,-4 -4.29812,-7.66667 -2.05868,-3.66667 -3.1241,-6.06667 -2.36758,-5.33333 1.92928,1.87013 8.80467,14 7.93542,14 -0.39307,0 -0.96444,-0.45 -1.26972,-1 z m -10.26901,-17.66667 c -0.78493,-1.46667 -1.12716,-2.66667 -0.76049,-2.66667 0.36667,0 1.30889,1.2 2.09383,2.66667 0.78493,1.46667 1.12716,2.66667 0.76049,2.66667 -0.36666,0 -1.30889,-1.2 -2.09383,-2.66667 z m -4,-6.66667 c -0.78493,-1.46666 -1.12716,-2.66666 -0.76049,-2.66666 0.36667,0 1.30889,1.2 2.09383,2.66666 0.78493,1.46667 1.12716,2.66667 0.76049,2.66667 -0.36667,0 -1.30889,-1.2 -2.09383,-2.66667 z m -5.33333,-9.33333 c -0.78493,-1.46667 -1.12716,-2.66667 -0.76049,-2.66667 0.36666,0 1.30889,1.2 2.09382,2.66667 0.78494,1.46667 1.12716,2.66667 0.7605,2.66667 -0.36667,0 -1.3089,-1.2 -2.09383,-2.66667 z m -4,-6.66667 c -0.78493,-1.46667 -1.12716,-2.66667 -0.76049,-2.66667 0.36666,0 1.30889,1.2 2.09382,2.66667 0.78494,1.46667 1.12716,2.66667 0.7605,2.66667 -0.36667,0 -1.3089,-1.2 -2.09383,-2.66667 z m 88.93567,1.66667 c -0.30527,-0.55 -2.23943,-4 -4.29812,-7.66667 -2.05868,-3.66667 -3.12409,-6.06667 -2.36757,-5.33333 1.92928,1.87013 8.80466,14 7.93541,14 -0.39307,0 -0.96444,-0.45 -1.26972,-1 z m -92.93567,-8.33334 c -0.78493,-1.46666 -1.12716,-2.66666 -0.76049,-2.66666 0.36666,0 1.30889,1.2 2.09382,2.66666 0.78494,1.46667 1.12716,2.66667 0.7605,2.66667 -0.36667,0 -1.3089,-1.2 -2.09383,-2.66667 z m -4.66667,-8 c -1.13766,-2.2 -1.76848,-4 -1.40181,-4 0.36667,0 1.59748,1.8 2.73515,4 1.13766,2.2 1.76848,4 1.40181,4 -0.36667,0 -1.59748,-1.8 -2.73515,-4 z m 86.66667,-2.66666 c -1.13766,-2.2 -1.76848,-4 -1.40181,-4 0.36667,0 1.59748,1.8 2.73515,4 1.13766,2.2 1.76848,4 1.40181,4 -0.36667,0 -1.59748,-1.8 -2.73515,-4 z m -91.33333,-5.33334 c -0.78494,-1.46666 -1.12716,-2.66666 -0.7605,-2.66666 0.36667,0 1.3089,1.2 2.09383,2.66666 0.78493,1.46667 1.12716,2.66667 0.76049,2.66667 -0.36666,0 -1.30889,-1.2 -2.09382,-2.66667 z m 86.66667,-2.66666 c -0.78494,-1.46667 -1.12716,-2.66667 -0.7605,-2.66667 0.36667,0 1.3089,1.2 2.09383,2.66667 0.78493,1.46666 1.12716,2.66666 0.76049,2.66666 -0.36666,0 -1.30889,-1.2 -2.09382,-2.66666 z m -90.66667,-4 c -0.78494,-1.46667 -1.12716,-2.66667 -0.7605,-2.66667 0.36667,0 1.3089,1.2 2.09383,2.66667 0.78493,1.46666 1.12716,2.66666 0.76049,2.66666 -0.36666,0 -1.30889,-1.2 -2.09382,-2.66666 z m 86,-4 c -1.13767,-2.2 -1.76848,-4 -1.40181,-4 0.36666,0 1.59748,1.8 2.73514,4 1.13767,2.2 1.76848,4 1.40182,4 -0.36667,0 -1.59748,-1.8 -2.73515,-4 z m -91.33334,-5.33334 c -0.78493,-1.46666 -1.12716,-2.66666 -0.76049,-2.66666 0.36667,0 1.30889,1.2 2.09383,2.66666 0.78493,1.46667 1.12716,2.66667 0.76049,2.66667 -0.36667,0 -1.30889,-1.2 -2.09383,-2.66667 z m 86.66667,-2.66666 c -0.78493,-1.46667 -1.12716,-2.66667 -0.76049,-2.66667 0.36667,0 1.30889,1.2 2.09383,2.66667 0.78493,1.46666 1.12716,2.66666 0.76049,2.66666 -0.36667,0 -1.30889,-1.2 -2.09383,-2.66666 z m -90.66667,-4 c -0.78493,-1.46667 -1.12716,-2.66667 -0.76049,-2.66667 0.36667,0 1.30889,1.2 2.09383,2.66667 0.78493,1.46666 1.12716,2.66666 0.76049,2.66666 -0.36667,0 -1.30889,-1.2 -2.09383,-2.66666 z m 86.00001,-4 c -1.13767,-2.2 -1.76848,-4 -1.40182,-4 0.36667,0 1.59748,1.8 2.73515,4 1.13767,2.2 1.76848,4 1.40181,4 -0.36666,0 -1.59748,-1.8 -2.73514,-4 z m -90.00001,-2.66667 c -0.78493,-1.46667 -1.12716,-2.66667 -0.76049,-2.66667 0.36667,0 1.30889,1.2 2.09383,2.66667 0.78493,1.46667 1.12716,2.66667 0.76049,2.66667 -0.36667,0 -1.30889,-1.2 -2.09383,-2.66667 z m 85.33334,-5.33333 c -0.78493,-1.46667 -1.12716,-2.66667 -0.76049,-2.66667 0.36666,0 1.30889,1.2 2.09382,2.66667 0.78494,1.46666 1.12716,2.66666 0.7605,2.66666 -0.36667,0 -1.3089,-1.2 -2.09383,-2.66666 z m -88.39767,0.33333 c -0.30527,-0.55 -2.23943,-4 -4.29812,-7.66667 -2.05868,-3.66666 -3.12409,-6.06666 -2.36757,-5.33333 1.92928,1.87013 8.80466,14 7.93541,14 -0.39307,0 -0.96444,-0.45 -1.26972,-1 z m 83.731,-8.33333 c -1.13766,-2.2 -1.76848,-4 -1.40181,-4 0.36667,0 1.59748,1.8 2.73515,4 1.13766,2.2 1.76848,4 1.40181,4 -0.36667,0 -1.59748,-1.8 -2.73515,-4 z m -3.731,-6.33334 c -0.30526,-0.55 -2.23942,-4 -4.29812,-7.66666 -2.05868,-3.66667 -3.12409,-6.06667 -2.36757,-5.33334 1.92928,1.87014 8.80467,14 7.93541,14 -0.39306,0 -0.96444,-0.45 -1.26972,-1 z m -90.269,-3 c -0.78493,-1.46666 -1.12716,-2.66666 -0.76049,-2.66666 0.36666,0 1.30889,1.2 2.09382,2.66666 0.78494,1.46667 1.12716,2.66667 0.7605,2.66667 -0.36667,0 -1.3089,-1.2 -2.09383,-2.66667 z m -4,-6.66666 c -0.78493,-1.46667 -1.12716,-2.66667 -0.76049,-2.66667 0.36666,0 1.30889,1.2 2.09382,2.66667 0.78494,1.46666 1.12716,2.66666 0.7605,2.66666 -0.36667,0 -1.3089,-1.2 -2.09383,-2.66666 z m 83.33334,-9.33334 c -1.13767,-2.2 -1.76848,-4 -1.40182,-4 0.36667,0 1.59748,1.8 2.73515,4 1.13767,2.2 1.76848,4 1.40181,4 -0.36666,0 -1.59748,-1.8 -2.73514,-4 z m -88.66667,0 c -0.78494,-1.46666 -1.12716,-2.66666 -0.7605,-2.66666 0.36667,0 1.3089,1.2 2.09383,2.66666 0.78493,1.46667 1.12716,2.66667 0.76049,2.66667 -0.36666,0 -1.30889,-1.2 -2.09382,-2.66667 z m -4,-6.66667 c -0.78494,-1.46666 -1.12716,-2.66666 -0.7605,-2.66666 0.36667,0 1.3089,1.2 2.09383,2.66666 0.78493,1.46667 1.12716,2.66667 0.76049,2.66667 -0.36666,0 -1.30889,-1.2 -2.09382,-2.66667 z m 88,-1.33333 c -0.78493,-1.46667 -1.12716,-2.66667 -0.76049,-2.66667 0.36666,0 1.30889,1.2 2.09382,2.66667 0.78494,1.46667 1.12716,2.66667 0.7605,2.66667 -0.36667,0 -1.3089,-1.2 -2.09383,-2.66667 z m -92,-5.33333 c -0.78494,-1.46667 -1.12716,-2.66667 -0.7605,-2.66667 0.36667,0 1.3089,1.2 2.09383,2.66667 0.78493,1.46666 1.12716,2.66666 0.76049,2.66666 -0.36666,0 -1.30889,-1.2 -2.09382,-2.66666 z m 88,-1.33334 c -0.78493,-1.46666 -1.12716,-2.66666 -0.76049,-2.66666 0.36666,0 1.30889,1.2 2.09382,2.66666 0.78494,1.46667 1.12716,2.66667 0.7605,2.66667 -0.36667,0 -1.3089,-1.2 -2.09383,-2.66667 z m -92,-5.33333 c -0.78494,-1.46667 -1.12716,-2.66667 -0.7605,-2.66667 0.36667,0 1.3089,1.2 2.09383,2.66667 0.78493,1.46667 1.12716,2.66667 0.76049,2.66667 -0.36666,0 -1.30889,-1.2 -2.09382,-2.66667 z m 87.60233,-2.33333 c -0.30526,-0.55 -2.23942,-4 -4.29812,-7.66667 -2.05868,-3.66667 -3.12409,-6.06667 -2.36757,-5.33333 1.92928,1.87013 8.80467,14 7.93541,14 -0.39306,0 -0.96444,-0.45 -1.26972,-1 z m -92.93567,-7 c -0.78493,-1.46667 -1.12716,-2.66667 -0.76049,-2.66667 0.36667,0 1.30889,1.2 2.09383,2.66667 0.78493,1.46666 1.12716,2.66666 0.76049,2.66666 -0.36667,0 -1.30889,-1.2 -2.09383,-2.66666 z m -4,-6.66667 c -0.78493,-1.46667 -1.12716,-2.66667 -0.76049,-2.66667 0.36667,0 1.30889,1.2 2.09383,2.66667 0.78493,1.46667 1.12716,2.66667 0.76049,2.66667 -0.36667,0 -1.30889,-1.2 -2.09383,-2.66667 z m 86.66667,-4 c -0.78493,-1.46667 -1.12716,-2.66667 -0.76049,-2.66667 0.36666,0 1.30889,1.2 2.09382,2.66667 0.78494,1.46667 1.12716,2.66667 0.7605,2.66667 -0.36667,0 -1.3089,-1.2 -2.09383,-2.66667 z m -90.66667,-2.66667 c -0.78493,-1.46666 -1.12716,-2.66666 -0.76049,-2.66666 0.36667,0 1.30889,1.2 2.09383,2.66666 0.78493,1.46667 1.12716,2.66667 0.76049,2.66667 -0.36667,0 -1.30889,-1.2 -2.09383,-2.66667 z m -4.66667,-8 c -1.13766,-2.2 -1.76848,-4 -1.40181,-4 0.36667,0 1.59748,1.8 2.73515,4 1.13767,2.2 1.76848,4 1.40181,4 -0.36666,0 -1.59748,-1.8 -2.73515,-4 z m 90.00001,1.33334 c -0.78494,-1.46667 -1.12716,-2.66667 -0.7605,-2.66667 0.36667,0 1.3089,1.2 2.09383,2.66667 0.78493,1.46666 1.12716,2.66666 0.76049,2.66666 -0.36666,0 -1.30889,-1.2 -2.09382,-2.66666 z m -4,-6.66667 c -0.78494,-1.46667 -1.12716,-2.66667 -0.7605,-2.66667 0.36667,0 1.3089,1.2 2.09383,2.66667 0.78493,1.46667 1.12716,2.66667 0.76049,2.66667 -0.36666,0 -1.30889,-1.2 -2.09382,-2.66667 z m -90.66667,-2.66667 c -0.78494,-1.46666 -1.12716,-2.66666 -0.7605,-2.66666 0.36667,0 1.3089,1.2 2.09383,2.66666 0.78493,1.46667 1.12716,2.66667 0.76049,2.66667 -0.36666,0 -1.30889,-1.2 -2.09382,-2.66667 z m 86,-5.33333 c -1.13767,-2.2 -1.76848,-4 -1.40181,-4 0.36666,0 1.59748,1.8 2.73514,4 1.13767,2.2 1.76848,4 1.40182,4 -0.36667,0 -1.59748,-1.8 -2.73515,-4 z m -90,-1.33333 c -0.78494,-1.46667 -1.12716,-2.66667 -0.7605,-2.66667 0.36667,0 1.3089,1.2 2.09383,2.66667 0.78493,1.46666 1.12716,2.66666 0.76049,2.66666 -0.36666,0 -1.30889,-1.2 -2.09382,-2.66666 z m -4,-6.66667 c -0.78494,-1.46667 -1.12716,-2.66667 -0.76049,-2.66667 0.36666,0 1.30889,1.2 2.09382,2.66667 0.78493,1.46667 1.12716,2.66667 0.76049,2.66667 -0.36666,0 -1.30889,-1.2 -2.09382,-2.66667 z m 90.269,1.66667 c -0.30527,-0.55 -2.23943,-4 -4.29812,-7.66667 -2.05868,-3.66667 -3.12409,-6.06667 -2.36757,-5.33333 1.92928,1.87013 8.80466,14 7.93541,14 -0.39307,0 -0.96444,-0.45 -1.26972,-1 z m -95.60234,-11 c -0.78493,-1.46667 -1.12715,-2.66667 -0.76049,-2.66667 0.36667,0 1.30889,1.2 2.09383,2.66667 0.78493,1.46666 1.12716,2.66666 0.76049,2.66666 -0.36667,0 -1.30889,-1.2 -2.09383,-2.66666 z m -4,-6.66667 c -0.78493,-1.46667 -1.12715,-2.66667 -0.76049,-2.66667 0.36667,0 1.30889,1.2 2.09383,2.66667 0.78493,1.46667 1.12715,2.66667 0.76049,2.66667 -0.36667,0 -1.30889,-1.2 -2.09383,-2.66667 z m 90.26901,1.66667 c -0.30527,-0.55 -2.23943,-4 -4.29812,-7.66667 -2.05868,-3.66667 -3.1241,-6.06667 -2.36758,-5.33333 1.92928,1.87013 8.80467,14 7.93542,14 -0.39307,0 -0.96444,-0.45 -1.26972,-1 z M 120,348.00001 c -0.78493,-1.46666 -1.12715,-2.66666 -0.76049,-2.66666 0.36667,0 1.30889,1.2 2.09383,2.66666 0.78493,1.46667 1.12715,2.66667 0.76049,2.66667 -0.36667,0 -1.30889,-1.2 -2.09383,-2.66667 z m -4.66666,-8 c -1.13767,-2.2 -1.76848,-4 -1.40182,-4 0.36667,0 1.59749,1.8 2.73515,4 1.13766,2.2 1.76848,4 1.40181,4 -0.36666,0 -1.59748,-1.8 -2.73514,-4 z m 89.60233,0.33333 c -0.30526,-0.55 -2.23942,-4 -4.29812,-7.66666 -2.05868,-3.66667 -3.12409,-6.06667 -2.36757,-5.33334 1.92928,1.87014 8.80467,14 7.93541,14 -0.39306,0 -0.96444,-0.45 -1.26972,-1 z m -94.269,-8.33333 c -0.78494,-1.46667 -1.12716,-2.66667 -0.76049,-2.66667 0.36667,0 1.30889,1.2 2.09382,2.66667 0.78494,1.46667 1.12716,2.66667 0.76049,2.66667 -0.36666,0 -1.30888,-1.2 -2.09382,-2.66667 z m -4,-6.66667 c -0.78494,-1.46666 -1.12716,-2.66666 -0.76049,-2.66666 0.36667,0 1.30889,1.2 2.09382,2.66666 0.78494,1.46667 1.12716,2.66667 0.76049,2.66667 -0.36666,0 -1.30888,-1.2 -2.09382,-2.66667 z m 88.93567,-1 c -0.30527,-0.55 -2.23943,-4 -4.29812,-7.66666 -2.05868,-3.66667 -3.12409,-6.06667 -2.36757,-5.33334 1.92928,1.87014 8.80466,14 7.93541,14 -0.39307,0 -0.96444,-0.45 -1.26972,-1 z m -92.93567,-5.66666 c -0.78494,-1.46667 -1.12716,-2.66667 -0.76049,-2.66667 0.36667,0 1.30889,1.2 2.09382,2.66667 0.78494,1.46666 1.12716,2.66666 0.76049,2.66666 -0.36666,0 -1.30888,-1.2 -2.09382,-2.66666 z m 77.93807,-20.33334 c -3.46243,-6.05 -6.55035,-11.45 -6.86205,-12 -0.3117,-0.55 -0.28383,-1 0.062,-1 0.50397,0 5.04157,7.57035 13.78604,23 0.31169,0.55 0.28382,1 -0.062,1 -0.34576,0 -3.46156,-4.95 -6.92399,-11 z m -91.271404,-2.33333 c -0.784936,-1.46667 -1.127157,-2.66667 -0.76049,-2.66667 0.366666,0 1.308888,1.2 2.093824,2.66667 0.784936,1.46667 1.127157,2.66667 0.76049,2.66667 -0.366666,0 -1.308888,-1.2 -2.093824,-2.66667 z m -5.333333,-9.33333 c -0.784936,-1.46667 -1.127158,-2.66667 -0.760491,-2.66667 0.366667,0 1.308888,1.2 2.093824,2.66667 0.784936,1.46666 1.127158,2.66666 0.760491,2.66666 -0.366667,0 -1.308888,-1.2 -2.093824,-2.66666 z m 86.000007,-6.66667 c -1.13767,-2.2 -1.76848,-4 -1.40182,-4 0.36667,0 1.59748,1.8 2.73515,4 1.13767,2.2 1.76848,4 1.40181,4 -0.36666,0 -1.59748,-1.8 -2.73514,-4 z m -90.000007,0 c -0.784936,-1.46667 -1.127158,-2.66667 -0.760491,-2.66667 0.366667,0 1.308888,1.2 2.093824,2.66667 0.784936,1.46667 1.127157,2.66667 0.760491,2.66667 -0.366667,0 -1.308888,-1.2 -2.093824,-2.66667 z m 85.333337,-8 c -0.78493,-1.46667 -1.12716,-2.66667 -0.76049,-2.66667 0.36666,0 1.30889,1.2 2.09382,2.66667 0.78494,1.46667 1.12716,2.66667 0.7605,2.66667 -0.36667,0 -1.3089,-1.2 -2.09383,-2.66667 z m -4,-6.66667 c -0.78493,-1.46666 -1.12716,-2.66666 -0.76049,-2.66666 0.36666,0 1.30889,1.2 2.09382,2.66666 0.78494,1.46667 1.12716,2.66667 0.7605,2.66667 -0.36667,0 -1.3089,-1.2 -2.09383,-2.66667 z m -90.666671,-1.33333 c -0.784936,-1.46667 -1.127157,-2.66667 -0.760491,-2.66667 0.366667,0 1.308888,1.2 2.093824,2.66667 0.784936,1.46667 1.127158,2.66667 0.760491,2.66667 -0.366667,0 -1.308888,-1.2 -2.093824,-2.66667 z m 86.000001,-6.66667 c -1.13766,-2.2 -1.76848,-4 -1.40181,-4 0.36667,0 1.59748,1.8 2.73515,4 1.13766,2.2 1.76848,4 1.40181,4 -0.36667,0 -1.59748,-1.8 -2.73515,-4 z m -90.000001,0 c -0.784936,-1.46666 -1.127157,-2.66666 -0.760491,-2.66666 0.366667,0 1.308888,1.2 2.093824,2.66666 0.784936,1.46667 1.127158,2.66667 0.760491,2.66667 -0.366667,0 -1.308888,-1.2 -2.093824,-2.66667 z m -4,-6.66666 c -0.784936,-1.46667 -1.127158,-2.66667 -0.760491,-2.66667 0.366667,0 1.308888,1.2 2.093824,2.66667 0.784936,1.46666 1.127158,2.66666 0.760491,2.66666 -0.366667,0 -1.308888,-1.2 -2.093824,-2.66666 z m 90.269001,0.33333 c -0.30526,-0.55 -2.23942,-4 -4.29812,-7.66667 -2.05868,-3.66667 -3.12409,-6.06667 -2.36757,-5.33333 1.92928,1.87013 8.80467,14 7.93541,14 -0.39306,0 -0.96444,-0.45 -1.26972,-1 z M 56.259934,236.66667 c 0.02717,-2.2 0.325997,-2.93858 0.664056,-1.64129 0.338057,1.29729 0.315825,3.09729 -0.0494,4 -0.365236,0.90271 -0.641829,-0.15871 -0.614656,-2.35871 z M 142,232.00001 c -1.13766,-2.2 -1.76848,-4 -1.40181,-4 0.36667,0 1.59748,1.8 2.73515,4 1.13766,2.2 1.76848,4 1.40181,4 -0.36667,0 -1.59748,-1.8 -2.73515,-4 z m -4.66666,-8 c -0.78494,-1.46667 -1.12716,-2.66667 -0.7605,-2.66667 0.36667,0 1.3089,1.2 2.09383,2.66667 0.78493,1.46666 1.12716,2.66666 0.76049,2.66666 -0.36666,0 -1.30889,-1.2 -2.09382,-2.66666 z m -4.66667,-8 c -1.13766,-2.2 -1.76848,-4 -1.40181,-4 0.36666,0 1.59748,1.8 2.73514,4 1.13767,2.2 1.76848,4 1.40182,4 -0.36667,0 -1.59748,-1.8 -2.73515,-4 z m -67.2925,-4.66667 c 0,-0.73333 0.581624,-2.23333 1.292499,-3.33333 0.710875,-1.1 1.292499,-1.4 1.292499,-0.66667 0,0.73333 -0.581624,2.23333 -1.292499,3.33333 -0.710875,1.1 -1.292499,1.4 -1.292499,0.66667 z M 128,208.00001 c -0.78493,-1.46667 -1.12715,-2.66667 -0.76049,-2.66667 0.36667,0 1.30889,1.2 2.09383,2.66667 0.78493,1.46666 1.12716,2.66666 0.76049,2.66666 -0.36667,0 -1.30889,-1.2 -2.09383,-2.66666 z m -4.65162,-7.4975 c -1.26041,-1.92362 -1.63264,-3.09021 -0.82718,-2.59241 1.53919,0.95128 4.64357,6.08991 3.67906,6.08991 -0.30813,0 -1.59147,-1.57388 -2.85188,-3.4975 z m -12.68171,-9.83584 c -4.03333,-2.1308 -6.86339,-3.90249 -6.28901,-3.93709 1.417,-0.0854 14.28901,6.48432 14.28901,7.29289 0,0.89072 0.18493,0.9683 -8,-3.3558 z m -37.238839,2 c 0,-0.73333 0.857477,-2.83333 1.905505,-4.66666 1.048028,-1.83334 1.905505,-2.73334 1.905505,-2 0,0.73333 -0.857477,2.83333 -1.905505,4.66666 -1.048028,1.83334 -1.905505,2.73334 -1.905505,2 z m 23.248278,-8.6514 c -0.467119,-0.75581 0.06808,-0.97933 1.254644,-0.52401 2.309887,0.88639 2.732517,1.84208 0.814606,1.84208 -0.690054,0 -1.621217,-0.59313 -2.06925,-1.31807 z M 86.66667,179.33334 c -3.3,-1.76705 -5.400001,-3.21284 -4.666667,-3.21284 0.733333,0 4.033333,1.44579 7.333333,3.21284 3.3,1.76705 5.400001,3.21284 4.666667,3.21284 -0.733333,0 -4.033333,-1.44579 -7.333333,-3.21284 z m 55.75,-12.24415 c 0.96249,-0.38516 2.11249,-0.3378 2.55556,0.1052 0.44305,0.44307 -0.34445,0.75819 -1.75,0.7003 -1.55327,-0.064 -1.8692,-0.37992 -0.80556,-0.80555 z m 371.91668,0.0277 c 0.91667,-0.36988 2.41667,-0.36988 3.33333,0 0.91667,0.36988 0.16667,0.67252 -1.66666,0.67252 -1.83334,0 -2.58334,-0.30264 -1.66667,-0.67252 z m 49.49184,-30.23965 c 0.81676,-0.98413 1.04023,-2.28033 0.49659,-2.88042 -0.54363,-0.60011 -0.20929,-0.64148 0.74299,-0.092 1.33396,0.76978 1.37301,1.43098 0.17006,2.88044 -0.85873,1.0347 -1.86133,1.88129 -2.228,1.88129 -0.36666,0 10e-4,-0.8052 0.81836,-1.78935 z M 108,124.82993 c 0,-0.27687 1.05,-1.32687 2.33334,-2.33333 2.11474,-1.6585 2.1619,-1.61134 0.5034,0.5034 C 109.09492,125.221 108,125.92731 108,124.82993 Z M 553.16327,119 c -1.65849,-2.11474 -1.61133,-2.1619 0.50342,-0.5034 2.221,1.74182 2.9273,2.83674 1.82992,2.83674 -0.27687,0 -1.32687,-1.05 -2.33334,-2.33334 z m -4,-5.33333 c -1.65849,-2.11474 -1.61133,-2.1619 0.50342,-0.50341 2.221,1.74183 2.9273,2.83674 1.82992,2.83674 -0.27687,0 -1.32687,-1.05 -2.33334,-2.33333 z m -4,-5.33333 c -1.65849,-2.11474 -1.61133,-2.1619 0.50342,-0.50341 1.28333,1.00646 2.33333,2.05646 2.33333,2.33333 0,1.09738 -1.09492,0.39107 -2.83675,-1.82992 z M 120,108.82993 c 0,-0.27687 1.05,-1.32687 2.33334,-2.33333 2.11474,-1.6585 2.1619,-1.61134 0.5034,0.5034 C 121.09492,109.221 120,109.92731 120,108.82993 Z M 541.16327,103 c -1.65849,-2.11474 -1.61133,-2.1619 0.50342,-0.5034 2.221,1.74182 2.9273,2.83674 1.82992,2.83674 -0.27687,0 -1.32687,-1.05 -2.33334,-2.33334 z M 128,98.163263 c 0,-0.276874 1.05,-1.326874 2.33334,-2.333333 2.11474,-1.658495 2.1619,-1.611335 0.5034,0.503407 C 129.09492,98.554334 128,99.260642 128,98.163263 Z"
         id="path449" />
      <path
         style="fill:#b3edf5;stroke-width:1.33333"
         d="m 263.2249,581.23326 c -5.47214,-1.58891 -5.92264,-2.19657 -22.16633,-29.89991 -7.73974,-13.2 -42.74855,-72.6 -77.79736,-132 -35.04882,-59.4 -69.683413,-118.20001 -76.965774,-130.66667 -7.28236,-12.46667 -16.848003,-28.5836 -21.256984,-35.81542 -9.81243,-16.0948 -9.820851,-15.87623 1.630845,-42.32908 4.568871,-10.55385 9.52215,-22.33884 11.007288,-26.18884 1.485138,-3.85 3.217526,-7 3.849751,-7 0.632225,0 9.697439,4.12755 20.144914,9.17232 15.35386,7.41392 19.52607,10.03392 21.76343,13.66667 1.52241,2.47189 14.96986,25.49434 29.88321,51.16101 14.91336,25.66667 43.73276,75.16667 64.04312,110.00001 20.31034,34.83333 52.04453,89.32176 70.52039,121.0854 l 33.59248,57.75207 -0.93378,21.24793 -0.93377,21.24794 -26.13649,-0.12027 c -14.37507,-0.0661 -27.9853,-0.65707 -30.24494,-1.31317 z m 292.77512,-439.07 c 0,-0.27687 1.05,-1.32687 2.33333,-2.33334 2.11475,-1.65849 2.16191,-1.61133 0.50342,0.50342 -1.74183,2.221 -2.83675,2.9273 -2.83675,1.82992 z m 5.33333,-4 c 0,-0.27687 1.05,-1.32687 2.33334,-2.33334 2.11474,-1.65849 2.1619,-1.61133 0.50341,0.50342 -1.74183,2.221 -2.83675,2.9273 -2.83675,1.82992 z M 106.66667,127.4966 c 0,-0.27688 1.05,-1.32688 2.33333,-2.33334 2.11475,-1.65849 2.16191,-1.61133 0.50341,0.50341 -1.74182,2.221 -2.83674,2.92731 -2.83674,1.82993 z m 12,-16 c 0,-0.27688 1.05,-1.32688 2.33333,-2.33334 2.11475,-1.65849 2.16191,-1.61133 0.50341,0.50341 -1.74182,2.221 -2.83674,2.92731 -2.83674,1.82993 z M 534.4966,95.000003 c -1.65849,-2.114741 -1.61133,-2.161901 0.50342,-0.503406 2.221,1.741825 2.92731,2.83674 1.82992,2.83674 -0.27687,0 -1.32687,-1.05 -2.33334,-2.333334 z"
         id="path447" />
      <path
         style="fill:#91dcf1;stroke-width:1.33333"
         d="m 141.33334,166.06294 c -4.76103,-1.34787 -36.81096,-20.35898 -41.810079,-24.80054 -1.464483,-1.30114 32.486139,-46.727233 37.425479,-50.075456 3.59722,-2.438452 9.95137,-2.531762 195.71794,-2.874138 132.41751,-0.244052 193.05631,0.08269 195.40388,1.052912 2.87303,1.187377 35.92946,43.221532 35.92946,45.687442 0,0.42104 -8.85,7.23371 -19.66667,15.1393 -16.87349,12.33232 -20.80288,14.61367 -27.66667,16.06287 -11.68584,2.46732 -366.5811,2.2854 -375.33334,-0.19239 z"
         id="path445" />
      <path
         style="fill:#9dbbc2;stroke-width:1.33333"
         d="m 356.46589,570.66669 c 0,-6.23334 0.22968,-8.78334 0.5104,-5.66667 0.28071,3.11667 0.28071,8.21667 0,11.33333 -0.28072,3.11667 -0.5104,0.56667 -0.5104,-5.66666 z m 70.20079,1.33333 c 0.78493,-1.46667 1.72716,-2.66667 2.09383,-2.66667 0.36666,0 0.0244,1.2 -0.7605,2.66667 -0.78493,1.46667 -1.72716,2.66667 -2.09382,2.66667 -0.36667,0 -0.0244,-1.2 0.76049,-2.66667 z M 613.43862,232.55557 c 0.064,-1.55327 0.37992,-1.8692 0.80555,-0.80556 0.38516,0.96249 0.3378,2.11249 -0.1052,2.55556 -0.44306,0.44305 -0.75819,-0.34446 -0.7003,-1.75 z m -54.77193,-39.72564 c 0,-0.27687 1.05,-1.32687 2.33333,-2.33334 2.11475,-1.65849 2.16191,-1.61133 0.50341,0.50342 -1.74182,2.221 -2.83674,2.9273 -2.83674,1.82992 z"
         id="path443" />
      <path
         style="fill:#8baeb6;stroke-width:1.33333"
         d="m 358.41668,581.75587 c 0.96249,-0.38516 2.11251,-0.3378 2.55556,0.1052 0.44305,0.44306 -0.34445,0.75819 -1.75,0.7003 -1.55327,-0.064 -1.8692,-0.37992 -0.80556,-0.80555 z m 13.58333,-0.014 c 24.4972,-0.95101 50.36475,-0.99004 49.79676,-0.0752 -0.34144,0.55 -13.9354,0.87925 -30.20878,0.73168 -16.27339,-0.14752 -25.08798,-0.44296 -19.58798,-0.65648 z M 356.21053,557.3334 c 0,-1.83333 0.30264,-2.58333 0.67252,-1.66666 0.36988,0.91666 0.36988,2.41666 0,3.33333 -0.36988,0.91667 -0.67252,0.16667 -0.67252,-1.66667 z m -0.1052,-19.44444 c 0.064,-1.55327 0.37992,-1.8692 0.80555,-0.80556 0.38516,0.9625 0.3378,2.11251 -0.1052,2.55556 -0.44305,0.44306 -0.75819,-0.34445 -0.70029,-1.75 z M 613.6965,240.00001 c 0,-3.3 0.26003,-4.65 0.57783,-3 0.31781,1.65 0.31781,4.35 0,6 -0.3178,1.65 -0.57783,0.3 -0.57783,-3 z m -23.19989,-61 c -1.6585,-2.11475 -1.61134,-2.16191 0.50341,-0.50342 2.221,1.74183 2.92731,2.83675 1.82992,2.83675 -0.27687,0 -1.32687,-1.05 -2.33333,-2.33333 z"
         id="path441" />
      <path
         style="fill:#77a2ad;stroke-width:1.33333"
         d="m 357.27355,569.00002 c -0.0329,-6.78333 -0.36175,-15.33333 -0.73079,-19 -0.36903,-3.66667 -0.1024,-9.06667 0.59255,-12 0.95648,-4.03738 1.29605,0.57949 1.39744,19 0.0737,13.38333 -0.16607,24.33333 -0.53274,24.33333 -0.36666,0 -0.69357,-5.55 -0.72646,-12.33333 z M 560.00002,192.82993 c 0,-0.27687 1.05,-1.32687 2.33333,-2.33334 2.11475,-1.65849 2.16191,-1.61133 0.50342,0.50342 -1.74183,2.221 -2.83675,2.9273 -2.83675,1.82992 z"
         id="path439" />
      <path
         style="fill:#6f9da8;stroke-width:1.33333"
         d="m 358.66668,557.4491 v -23.88424 l 15.47829,-26.4491 c 8.51307,-14.54698 26.62682,-45.34908 40.25278,-68.44908 13.62596,-23.1 28.74387,-48.9 33.59535,-57.33333 4.85148,-8.43334 14.87493,-25.53334 22.27436,-38 7.39941,-12.46667 28.27917,-47.86667 46.39945,-78.66667 18.12028,-30.80001 34.83307,-59.19937 37.13954,-63.10971 4.34588,-7.36792 14.33661,-15.1445 27.87372,-21.69631 5.54452,-2.68349 6.5862,-2.82669 8.24064,-1.13289 1.73213,1.77334 9.62522,19.91585 19.69618,45.27224 5.46587,13.76182 4.84544,22.4164 -2.53766,35.39865 -2.89894,5.0974 -25.28858,43.76802 -49.75475,85.93469 -24.46618,42.16666 -48.64596,83.86666 -53.73287,92.66666 -58.30192,100.85829 -67.91422,117.47544 -75.37831,130.30942 l -7.54672,12.97607 -31,0.0239 -31,0.0239 z"
         id="path437" />
    </g>
  </g>
</svg>
